<?xml version="1.0" encoding="utf-8"?>
<!-- Generator: Adobe Illustrator 24.0.2, SVG Export Plug-In . SVG Version: 6.00 Build 0)  -->
<svg version="1.1" id="Layer_1" xmlns="http://www.w3.org/2000/svg" xmlns:xlink="http://www.w3.org/1999/xlink" x="0px" y="0px"
	 viewBox="0 0 3561.73 499.73" style="enable-background:new 0 0 3561.73 499.73;" xml:space="preserve">
<style type="text/css">
	.st0{fill:#ED383F;}
	.st1{fill:#FFCD37;}
	.st2{fill:#FFFFFF;}
	.st3{fill:#FFCE34;}
	.st4{fill-rule:evenodd;clip-rule:evenodd;}
</style>
<g>
	<path class="st0" d="M569.88,412.01V150.25h-38.47V88.02h141.82v62.23h-38.47v261.76H569.88z"/>
	<path class="st0" d="M691.33,412.01v-324h64.5v115.79h30.55V88.02h64.5v324h-64.5v-147.1h-30.55v147.1H691.33z"/>
	<path class="st0" d="M872,412.01v-324h129.75v62.61H938v62.99h61.1v61.1H938v74.3h67.89v62.99H872z"/>
</g>
<path class="st1" d="M1349.65,307.02c0,65.79-40.9,97.8-128.92,97.8h-140.47v-244.5h-32.9V92.75c11.56-2.67,27.56-5.33,51.57-5.33
	c19.56,0,34.67,4,45.34,13.78c18.23-9.34,43.56-16.45,76.46-16.45c69.35,0,111.13,34.67,111.13,88.02
	c0,27.12-10.67,46.23-28.01,59.12C1331.87,245.23,1349.65,269.24,1349.65,307.02z M1204.73,157.66c-14.22,0-28.89,1.33-42.67,3.56
	v56.9h51.57c24.89,0,38.23-8.89,38.23-29.34C1251.85,169.21,1237.63,157.66,1204.73,157.66z M1267.85,307.02
	c0-19.56-14.23-26.67-34.68-26.67h-71.13v53.35h71.13C1251.85,333.69,1267.85,326.58,1267.85,307.02z"/>
<path class="st1" d="M1377.11,89.2h81.8v315.62h-81.8V89.2z"/>
<path class="st1" d="M1789.01,260.79v144.03h-66.68l-3.11-24.45c-20.89,17.34-49.34,29.78-84.02,29.78
	c-93.36,0-152.03-60.46-152.03-162.7c0-107.58,57.79-162.7,158.26-162.7c86.24,0,128.92,38.23,140.47,94.24l-86.24,17.34
	c-6.22-27.12-22.67-39.56-54.23-39.56c-45.79,0-72.9,28.45-72.9,90.69c0,59.57,26.23,89.8,78.24,89.8
	c40.01,0,62.24-18.67,62.24-40.9v-6.22h-69.35v-61.35h113.8C1776.57,228.78,1789.01,241.23,1789.01,260.79z"/>
<g>
	<path class="st0" d="M1837.28,407.18V87.73h65.82l29.38,152.85V87.73h61.73v319.45h-62.48l-31.98-159.91v159.91H1837.28z"/>
	<path class="st0" d="M2020.66,407.18V87.73h61.73v319.45H2020.66z"/>
	<path class="st0" d="M2119.99,385.8c-11.28-16.24-16.92-40.84-16.92-73.82v-137.6c0-29.5,6.57-51.81,19.71-66.94
		c13.14-15.12,32.73-22.69,58.76-22.69c21.07,0,37.43,4.22,49.09,12.64c11.65,8.43,19.71,20.7,24.17,36.82
		c4.46,16.12,6.69,36.82,6.69,62.11h-62.48v-28.64c0-7.68-1.06-13.63-3.16-17.85c-2.11-4.21-5.89-6.32-11.34-6.32
		c-12.15,0-18.22,7.94-18.22,23.8v154.71c0,9.67,1.24,16.99,3.72,21.94c2.48,4.96,6.82,7.44,13.02,7.44c6.2,0,10.54-2.48,13.02-7.44
		c2.48-4.96,3.72-12.27,3.72-21.94v-45.74h-17.11v-55.04h78.1v185.94h-25.66l-10.78-26.78c-11.41,19.84-29.01,29.75-52.81,29.75
		C2148.44,410.16,2131.27,402.04,2119.99,385.8z"/>
	<path class="st0" d="M2286.83,407.18V87.73h63.59V201.9h30.12V87.73h63.59v319.45h-63.59V262.14h-30.12v145.04H2286.83z"/>
	<path class="st0" d="M2498.81,407.18V149.09h-37.93V87.73h139.83v61.36h-37.93v258.09H2498.81z"/>
</g>
<path class="st1" d="M2644.04,86.41h83.84v323.52h-83.84V86.41z"/>
<path class="st1" d="M3065.65,88.26v323.52h-81.11L2849.67,228.6v183.18h-83.84V91.9l80.2-10.94l135.79,187.28V88.26H3065.65z"/>
<g>
	<path class="st0" d="M3444.28,408.09h-294.97c-7.83,0-14.23-6.4-14.23-14.23V98.89c0-7.83,6.4-14.23,14.23-14.23h294.97
		c7.83,0,14.23,6.4,14.23,14.23v294.97C3458.51,401.68,3452.1,408.09,3444.28,408.09z"/>
	<g id="COMIC_RELIEF_-_optical_tweak_5_">
		<path class="st2" d="M3190.78,217.33c0,7.05,0.91,11.58,6.27,11.58c5.43,0,6.27-4.53,6.27-11.58v-8.54h17.98v3.62
			c0,18.5-5.89,31.44-23.87,31.44c-18.5,0-25.62-12.42-25.62-35.19v-10.8c0-22.77,7.18-35.19,25.62-35.19
			c17.98,0,23.87,12.94,23.87,31.44v3.62h-17.98v-8.54c0-7.05-0.91-11.58-6.27-11.58c-5.43,0-6.27,4.53-6.27,11.58V217.33
			L3190.78,217.33z"/>
		<path class="st2" d="M3276.03,208.14c0,22.77-7.18,35.71-25.62,35.71c-18.5,0-25.62-12.94-25.62-35.71v-9.83
			c0-22.77,7.18-35.71,25.62-35.71c18.5,0,25.62,12.94,25.62,35.71V208.14z M3243.88,217.07c0,7.05,1.1,11.84,6.53,11.84
			c5.43,0,6.53-4.79,6.53-11.84v-27.62c0-7.05-1.1-11.84-6.53-11.84c-5.43,0-6.53,4.79-6.53,11.84V217.07L3243.88,217.07z"/>
		<path class="st2" d="M3312.06,203.87h0.52l7.57-40.23h23.22v79.17h-17.08v-45.09h-0.52l-8.67,45.09h-11.58l-8.93-45.09h-0.52
			v45.09h-16.24v-79.17h23.74L3312.06,203.87z"/>
		<path class="st2" d="M3367.63,163.64v79.17h-18.5v-79.17H3367.63z"/>
		<path class="st2" d="M3391.11,217.33c0,7.05,0.91,11.58,6.27,11.58c5.43,0,6.27-4.53,6.27-11.58v-8.54h17.98v3.62
			c0,18.5-5.89,31.44-23.87,31.44c-18.5,0-25.62-12.42-25.62-35.19v-10.8c0-22.77,7.18-35.19,25.62-35.19
			c17.98,0,23.87,12.94,23.87,31.44v3.62h-17.98v-8.54c0-7.05-0.91-11.58-6.27-11.58c-5.43,0-6.27,4.53-6.27,11.58V217.33z"/>
		<path class="st2" d="M3203.45,329.11c-1.04-3.04-1.23-7.63-1.75-17.21c-0.39-7.57-2.26-11.45-8.02-11.45h-2.39v28.66h-18.24
			v-79.17h22.77c17.72,0,25.62,9.31,25.62,23.35c0,12.42-5.63,18.63-13.71,19.99c8.28,1.88,11.06,7.76,11.71,17.72
			c0.65,10.41,0.52,14.42,2.26,18.11H3203.45z M3193.04,285.9c7.44,0,10.28-2.39,10.28-10.41c0-7.18-2.91-10.67-10.28-10.67h-1.75
			v21.09H3193.04z"/>
		<path class="st2" d="M3265.68,329.11h-40.1v-79.17h40.1v15.2h-21.99v16.24h16.37v15.07h-16.37v17.47h21.99V329.11L3265.68,329.11z
			"/>
		<path class="st2" d="M3288.45,249.93v63.97h21.35v15.2h-39.85v-79.17H3288.45z"/>
		<path class="st2" d="M3331.79,249.93v79.17h-18.5v-79.17H3331.79z"/>
		<path class="st2" d="M3377.52,329.11h-40.1v-79.17h40.1v15.2h-21.99v16.24h16.37v15.07h-16.37v17.47h21.99V329.11L3377.52,329.11z
			"/>
		<path class="st2" d="M3381.86,329.11v-79.17h38.55v15.2h-20.12v18.37h14.68v14.94h-14.68v30.66H3381.86z"/>
	</g>
</g>
<g>
	<path class="st3" d="M472.58,234c-13.41-16.89-17.33-28.15-20.17-36.37l-0.93-2.7c-1.7-4.95,2.24-8.27,3.05-8.89
		c15.94-12.7,24.53-29.63,24.31-47.86c-0.21-15.93-6.87-30.82-18.74-41.92c-11.89-11.12-27.58-17.13-44.17-16.94
		c-25.58,0.31-48.56,15.84-57.5,38.72c-0.22,0.18-1.15,0.31-3.01-0.39l-0.22-0.08l-0.19-0.05c-19.15-6.17-39.27-9.24-59.83-9.12
		l-0.6-0.01h-0.38c-12.3,0.14-24.56,1.45-36.48,3.89c-0.05,0.01-0.69,0.22-1.34,0.42c-7.59,1.64-15,3.72-22.09,6.19l-0.41,0.16
		c-1.83,0.73-2.79,0.61-3,0.45c-9.53-22.69-32.91-37.7-58.43-37.4c-16.61,0.19-32.14,6.57-43.76,17.96
		c-11.41,11.21-17.68,25.95-17.68,41.58c0,0.25,0,0.5,0.02,0.74c0.2,18.25,9.21,34.99,25.33,47.19c1.04,0.77,3.76,3.12,3.76,6.73
		c0,0.73-0.1,1.53-0.37,2.37c-0.03,0.02-0.85,2.56-0.85,2.56c-2.64,8.28-6.27,19.64-19.24,36.83
		C107.77,253.8,95.68,273.09,95.68,297c0,0.28,0.01,0.59,0.01,0.88c0.1,6.96,1.19,13.69,3.04,20.17
		c1.21,3.69,5.82,17.06,11.76,24.32c12.3,17.17,31.68,30.77,56.34,38.56c12.44,3.92,34.69,15.55,35.77,16.12
		c24.01,14.29,56.8,22.79,90.05,23.31c0.03,0,5.45,0.07,5.45,0.07s1.64-0.07,2.09-0.08c49.01-1.03,81.33-17.9,93.37-25.45
		c0.28-0.18,22.85-12.68,35.44-16.98c20.87-7.12,37.81-18.43,49.69-32.44c3.61-3.99,14.18-23.78,14.23-23.88
		c3.3-8.65,5.09-17.81,5.09-27.33v-0.99C497.73,268.97,484.97,249.68,472.58,234z"/>
	<g>
		<g>
			<path d="M209.21,261.03c0,1.32-0.42,2.48-1.27,3.5l0.06,0.06c-4.1,5.02-9.43,7.54-15.98,7.54c-6.72,0-12.12-2.67-16.18-7.96
				c-3.74-4.87-5.61-10.76-5.61-17.68c0-7,1.85-12.91,5.55-17.75c4.07-5.27,9.48-7.9,16.24-7.9c6.39,0,11.68,2.57,15.86,7.72
				c0.84,1.04,1.27,2.21,1.27,3.5c0,1.32-0.45,2.5-1.32,3.53c-0.89,1.02-2,1.54-3.32,1.54c-1.49,0-2.76-0.75-3.8-2.24
				c-2.04-2.98-4.94-4.46-8.68-4.46c-3.99,0-7.05,1.74-9.18,5.25c-1.82,2.98-2.72,6.58-2.72,10.8c0,4.31,0.88,7.92,2.65,10.81
				c2.1,3.45,5.17,5.17,9.25,5.17c3.54,0,6.35-1.36,8.43-4.09c0.97-1.65,2.32-2.48,4.05-2.48c1.37,0,2.5,0.52,3.38,1.54
				C208.76,258.45,209.21,259.66,209.21,261.03z"/>
			<path d="M248.85,266.93c0,1.41-0.4,2.53-1.22,3.42c-0.83,0.86-1.92,1.29-3.29,1.29c-3.01,0-4.52-1.56-4.52-4.71V246
				c0-2.73-0.86-5.08-2.59-7.03c-1.74-1.95-3.95-2.93-6.64-2.93c-2.82,0-5.07,0.95-6.76,2.84c-1.7,1.89-2.54,4.27-2.54,7.12v20.93
				c0,1.41-0.41,2.53-1.24,3.42c-0.82,0.86-1.91,1.29-3.28,1.29c-3.02,0-4.52-1.56-4.52-4.71v-43.74c0-1.41,0.41-2.54,1.23-3.41
				c0.82-0.86,1.92-1.3,3.29-1.3c3.02,0,4.53,1.57,4.53,4.71v6.88c2.86-1.57,5.95-2.36,9.29-2.36c5.07,0,9.38,1.71,12.95,5.13
				c3.56,3.42,5.32,7.64,5.32,12.67V266.93z"/>
			<path d="M262.39,223.25c0,1.37-0.48,2.54-1.42,3.53c-0.95,0.98-2.11,1.48-3.48,1.48c-1.29,0-2.42-0.52-3.41-1.54
				c-0.98-1.03-1.47-2.19-1.47-3.47c0-1.29,0.5-2.41,1.47-3.35c0.99-0.95,2.12-1.42,3.41-1.42c1.24,0,2.38,0.48,3.39,1.45
				C261.88,220.9,262.39,222,262.39,223.25z M262.03,266.93c0,1.41-0.42,2.54-1.24,3.42c-0.82,0.86-1.92,1.29-3.29,1.29
				c-3.01,0-4.51-1.56-4.51-4.71v-31.55c0-1.41,0.42-2.55,1.23-3.41c0.83-0.87,1.92-1.3,3.28-1.3c3.02,0,4.53,1.57,4.53,4.71V266.93
				z"/>
			<path d="M275.49,266.93c0,1.41-0.41,2.53-1.24,3.42c-0.82,0.86-1.92,1.29-3.29,1.29c-3.01,0-4.53-1.56-4.53-4.71v-43.74
				c0-1.41,0.42-2.54,1.24-3.41c0.82-0.86,1.92-1.3,3.29-1.3c3.02,0,4.53,1.57,4.53,4.71V266.93z"/>
			<path d="M320.44,266.93c0,1.41-0.4,2.53-1.23,3.42c-0.82,0.86-1.92,1.29-3.29,1.29c-2.33,0-3.79-1.08-4.34-3.26
				c-3.42,2.46-7.41,3.68-11.95,3.68c-6.07,0-11.08-2.22-15.01-6.64c-3.83-4.21-5.74-9.39-5.74-15.55c0-6.27,1.87-11.49,5.62-15.67
				c3.9-4.35,8.94-6.51,15.14-6.51c4.42,0,8.36,1.2,11.76,3.6v-8.09c0-1.41,0.41-2.55,1.24-3.41c0.83-0.86,1.91-1.3,3.29-1.3
				c3.02,0,4.52,1.57,4.52,4.71V266.93z M310.98,249.86c0-3.9-0.9-7.1-2.67-9.58c-2.05-2.86-4.94-4.3-8.69-4.3
				c-3.73,0-6.63,1.43-8.68,4.3c-1.78,2.48-2.66,5.69-2.66,9.58c0,3.83,0.89,6.99,2.72,9.53c2.09,2.9,4.96,4.35,8.62,4.35
				c3.66,0,6.55-1.45,8.63-4.35C310.06,256.85,310.98,253.69,310.98,249.86z"/>
			<path d="M361.25,248.96c0,1.41-0.4,2.54-1.23,3.42c-0.81,0.84-1.92,1.29-3.29,1.29c-3.02,0-4.52-1.57-4.52-4.7v-3.02
				c0-2.86-0.85-5.22-2.54-7.13c-1.69-1.89-3.95-2.83-6.76-2.83c-2.73,0-4.96,0.96-6.67,2.9c-1.71,1.93-2.56,4.28-2.56,7.06v20.99
				c0,1.41-0.42,2.53-1.24,3.42c-0.83,0.86-1.92,1.29-3.29,1.29c-3.01,0-4.52-1.56-4.52-4.71v-34.26c0-1.41,0.41-2.55,1.24-3.41
				c0.82-0.87,1.93-1.29,3.29-1.29c1.93,0,3.29,0.78,4.04,2.35c2.98-1.75,6.22-2.63,9.71-2.63c5.15,0,9.5,1.69,13.03,5.06
				c3.54,3.38,5.3,7.62,5.3,12.73V248.96z"/>
			<path d="M404.56,247.99c0,3.86-1.77,5.8-5.31,5.8h-25.28c0.72,3.54,2.29,6.19,4.7,7.96c1.74,1.29,3.81,1.93,6.22,1.93
				c2.25,0,4.22-0.38,5.91-1.16c0.32-0.15,1.5-0.85,3.57-2.11c1.24-0.75,2.37-1.13,3.37-1.13c1.16,0,2.09,0.41,2.75,1.23
				c0.66,0.83,0.99,1.82,0.99,2.99c0,2.73-2.18,4.93-6.57,6.58c-3.41,1.29-6.76,1.93-10.02,1.93c-6.19,0-11.24-2.17-15.14-6.52
				c-3.74-4.19-5.62-9.41-5.62-15.69c0-6.27,1.87-11.5,5.62-15.69c3.9-4.35,8.95-6.52,15.14-6.52c5.96,0,10.73,1.9,14.31,5.7
				C402.78,237.1,404.56,241.99,404.56,247.99z M395.15,245.46c0-3.22-1.1-5.67-3.32-7.36c-1.88-1.45-4.2-2.17-6.94-2.17
				c-2.89,0-5.3,0.88-7.23,2.66c-1.76,1.65-2.98,3.94-3.62,6.88H395.15z"/>
			<path d="M444.86,266.93c0,1.41-0.41,2.53-1.23,3.42c-0.83,0.86-1.92,1.29-3.3,1.29c-3.02,0-4.52-1.56-4.52-4.71v-21.05
				c0-2.85-0.84-5.22-2.53-7.12c-1.69-1.9-3.95-2.84-6.75-2.84c-2.74,0-4.96,0.96-6.66,2.89c-1.71,1.93-2.57,4.3-2.57,7.07v21.05
				c0,1.41-0.41,2.53-1.25,3.42c-0.82,0.86-1.92,1.29-3.28,1.29c-3.02,0-4.53-1.56-4.53-4.71v-34.26c0-1.41,0.42-2.55,1.24-3.41
				c0.83-0.87,1.93-1.29,3.29-1.29c1.93,0,3.27,0.78,4.05,2.35c2.97-1.8,6.2-2.72,9.71-2.72c5.14,0,9.49,1.69,13.03,5.07
				c3.53,3.38,5.3,7.63,5.3,12.73V266.93z"/>
			<path d="M184.85,287.68c0,1.36-0.47,2.54-1.43,3.52c-0.94,1-2.1,1.49-3.46,1.49c-1.29,0-2.43-0.51-3.41-1.54
				c-0.98-1.04-1.47-2.19-1.47-3.47c0-1.28,0.49-2.41,1.47-3.35c0.99-0.95,2.13-1.42,3.41-1.42c1.24,0,2.37,0.47,3.38,1.43
				C184.34,285.32,184.85,286.43,184.85,287.68z M184.49,331.36c0,1.41-0.42,2.54-1.24,3.41c-0.83,0.86-1.93,1.3-3.29,1.3
				c-3.02,0-4.52-1.57-4.52-4.71V299.8c0-1.41,0.41-2.54,1.24-3.4c0.82-0.87,1.92-1.3,3.29-1.3c3.02,0,4.53,1.58,4.53,4.7V331.36z"
				/>
			<path d="M225.16,331.36c0,1.41-0.42,2.54-1.24,3.41c-0.82,0.86-1.93,1.3-3.29,1.3c-3.02,0-4.52-1.57-4.52-4.71v-21.06
				c0-2.86-0.85-5.24-2.54-7.12c-1.68-1.9-3.94-2.84-6.75-2.84c-2.74,0-4.97,0.96-6.67,2.89c-1.71,1.93-2.57,4.28-2.57,7.07v21.06
				c0,1.41-0.41,2.54-1.23,3.41c-0.83,0.86-1.93,1.3-3.29,1.3c-3.02,0-4.53-1.57-4.53-4.71V297.1c0-1.41,0.41-2.54,1.23-3.41
				c0.83-0.87,1.93-1.31,3.29-1.31c1.93,0,3.29,0.78,4.04,2.35c2.98-1.8,6.22-2.7,9.72-2.7c5.15,0,9.49,1.67,13.03,5.07
				c3.54,3.37,5.31,7.6,5.31,12.71V331.36z"/>
			<path d="M287.25,330.64c0,1.57-0.42,2.88-1.26,3.91c-0.85,1.03-2.06,1.53-3.62,1.53c-1.61,0-2.93-0.33-3.99-1
				c-1.03-0.66-2.43-2.34-4.17-5.03l-16.35-25.03v25.61c0,1.54-0.41,2.82-1.26,3.88c-0.85,1.05-2.02,1.56-3.5,1.56
				c-1.56,0-2.76-0.5-3.55-1.53c-0.81-1.03-1.21-2.33-1.21-3.91v-39.56c0-1.74,0.45-3.06,1.36-4.02c0.89-0.95,2.12-1.42,3.65-1.42
				c1.53,0,2.8,0.34,3.86,1c1.05,0.68,2.43,2.32,4.16,4.98l16.35,25.05v-25.59c0-1.57,0.4-2.87,1.24-3.9
				c0.81-1.01,1.99-1.54,3.54-1.54c1.55,0,2.73,0.52,3.55,1.5c0.8,1.02,1.2,2.33,1.2,3.94V330.64z"/>
			<path d="M331.12,312.41c0,3.87-1.77,5.79-5.3,5.79h-25.28c0.72,3.54,2.3,6.2,4.7,7.96c1.73,1.29,3.8,1.94,6.21,1.94
				c2.26,0,4.24-0.39,5.92-1.15c0.32-0.16,1.5-0.87,3.57-2.12c1.25-0.75,2.36-1.14,3.38-1.14c1.16,0,2.08,0.42,2.74,1.25
				c0.67,0.82,1.01,1.81,1.01,2.98c0,2.73-2.21,4.93-6.59,6.57c-3.42,1.28-6.76,1.92-10.02,1.92c-6.18,0-11.24-2.15-15.14-6.51
				c-3.75-4.18-5.61-9.41-5.61-15.69c0-6.28,1.86-11.5,5.61-15.69c3.9-4.35,8.95-6.51,15.14-6.51c5.95,0,10.73,1.9,14.3,5.7
				C329.34,301.53,331.12,306.41,331.12,312.41z M321.72,309.88c0-3.22-1.1-5.67-3.3-7.37c-1.9-1.44-4.22-2.16-6.96-2.16
				c-2.89,0-5.31,0.88-7.24,2.65c-1.77,1.65-2.96,3.94-3.61,6.88H321.72z"/>
			<path d="M374.03,312.41c0,3.87-1.77,5.79-5.3,5.79h-25.28c0.73,3.54,2.29,6.2,4.7,7.96c1.75,1.29,3.81,1.94,6.22,1.94
				c2.25,0,4.23-0.39,5.91-1.15c0.33-0.16,1.52-0.87,3.57-2.12c1.25-0.75,2.36-1.14,3.39-1.14c1.15,0,2.07,0.42,2.73,1.25
				c0.67,0.82,0.99,1.81,0.99,2.98c0,2.73-2.18,4.93-6.57,6.57c-3.42,1.28-6.76,1.92-10.02,1.92c-6.18,0-11.24-2.15-15.14-6.51
				c-3.75-4.18-5.62-9.41-5.62-15.69c0-6.28,1.88-11.5,5.62-15.69c3.89-4.35,8.95-6.51,15.14-6.51c5.97,0,10.73,1.9,14.31,5.7
				C372.25,301.53,374.03,306.41,374.03,312.41z M364.62,309.88c0-3.22-1.1-5.67-3.32-7.37c-1.91-1.44-4.2-2.16-6.94-2.16
				c-2.89,0-5.31,0.88-7.23,2.65c-1.78,1.65-2.98,3.94-3.63,6.88H364.62z"/>
			<path d="M418,331.36c0,1.41-0.41,2.54-1.24,3.41c-0.82,0.86-1.92,1.3-3.28,1.3c-2.34,0-3.8-1.09-4.36-3.27
				c-3.4,2.45-7.41,3.69-11.95,3.69c-6.05,0-11.07-2.21-15.01-6.64c-3.82-4.22-5.73-9.41-5.73-15.56c0-6.27,1.87-11.49,5.61-15.67
				c3.91-4.35,8.95-6.52,15.13-6.52c4.43,0,8.36,1.2,11.78,3.61v-8.08c0-1.42,0.42-2.56,1.25-3.43c0.81-0.86,1.91-1.28,3.28-1.28
				c3,0,4.52,1.57,4.52,4.71V331.36z M408.52,314.29c0-3.91-0.88-7.11-2.65-9.6c-2.05-2.85-4.96-4.29-8.71-4.29
				c-3.72,0-6.64,1.44-8.68,4.29c-1.77,2.49-2.65,5.69-2.65,9.6c0,3.82,0.9,7,2.71,9.53c2.1,2.9,4.98,4.35,8.62,4.35
				c3.68,0,6.56-1.45,8.64-4.35C407.62,321.29,408.52,318.1,408.52,314.29z"/>
		</g>
		<g>
			<g>
				<path class="st4" d="M312.67,167.08c-0.22-0.04-0.42-0.08-0.63-0.11l-0.26-0.04c-0.35-0.05-0.71-0.09-1.08-0.12
					c-0.25-0.02-0.5-0.04-0.76-0.05c-0.44-0.03-0.88-0.05-1.3-0.05c-0.2,0-0.29,0-0.49,0.01c-0.35,0-0.68,0.02-1.04,0.05
					c-0.19,0-0.38,0.02-0.57,0.04c-0.29,0.03-0.55,0.05-0.81,0.08l-0.24,0.04l-0.26,0.03l-0.3,0.05c-0.14,0.02-0.28,0.04-0.41,0.07
					c-0.18,0.04-0.36,0.08-0.53,0.1c-1.12,0.24-2.15,0.56-3.08,0.92c-0.5,0.19-0.97,0.4-1.41,0.61c-0.36,0.18-0.73,0.38-1.09,0.57
					c-0.33,0.2-0.65,0.39-0.96,0.6c-0.16,0.12-0.34,0.24-0.53,0.36c-0.13,0.11-0.28,0.21-0.42,0.32c-0.3,0.23-0.59,0.46-0.84,0.69
					c-0.25,0.22-0.51,0.45-0.73,0.68c-0.19,0.19-0.4,0.39-0.58,0.6c-0.18,0.21-0.38,0.42-0.55,0.64c-0.2,0.24-0.4,0.48-0.57,0.74
					c-0.13,0.18-0.27,0.39-0.4,0.57c-0.09,0.14-0.18,0.27-0.24,0.4c-0.5,0.8-0.92,1.66-1.27,2.57c-0.44,1.13-0.76,2.36-0.93,3.66
					c-0.05,0.4-0.1,0.82-0.12,1.25c-0.03,0.33-0.03,0.65-0.03,0.99c0,0.25,0,0.49,0.01,0.74c0.03,0.26,0.04,0.51,0.07,0.76
					l0.02,0.17c0.03,0.31,0.08,0.59,0.15,0.88c0.01,0.12,0.04,0.23,0.06,0.34c0.04,0.24,0.1,0.47,0.17,0.71
					c0.09,0.3,0.16,0.6,0.26,0.89c0.12,0.36,0.26,0.7,0.4,1.05c0.22,0.54,0.46,1.06,0.74,1.54c0.17,0.28,0.31,0.55,0.49,0.83
					c0.12,0.21,0.26,0.42,0.39,0.62c0.19,0.26,0.37,0.52,0.57,0.76c0.21,0.25,0.4,0.5,0.6,0.72c0.25,0.29,0.5,0.55,0.74,0.79
					l0.14,0.14c0.21,0.19,0.42,0.39,0.68,0.61c0.16,0.14,0.34,0.3,0.52,0.45c0.2,0.14,0.36,0.29,0.58,0.42
					c0.24,0.18,0.49,0.34,0.75,0.5c0.29,0.18,0.57,0.36,0.89,0.55c0.61,0.34,1.31,0.67,2.05,0.98c0.28,0.11,0.58,0.22,0.88,0.32
					c0.3,0.1,0.6,0.21,0.92,0.29c0.53,0.15,1.1,0.29,1.69,0.41c0.48,0.09,0.98,0.17,1.5,0.23c0.5,0.06,1.03,0.11,1.59,0.14
					c0.27,0.01,0.53,0.01,0.81,0.03c0.13,0,0.25,0,0.37,0c1,0,1.9-0.03,2.75-0.1l0.17-0.02c0.33-0.03,0.65-0.06,0.97-0.1
					c0.49-0.05,0.94-0.13,1.37-0.2c0.29-0.05,0.55-0.11,0.81-0.16c0.41-0.09,0.79-0.18,1.16-0.28c0.27-0.08,0.53-0.15,0.76-0.23
					c0.3-0.09,0.61-0.18,0.87-0.28l0.27-0.09c0.14-0.05,0.3-0.11,0.53-0.19c0.28-0.11,0.62-0.25,1-0.42
					c0.24-0.1,0.48-0.21,0.74-0.32c0.23-0.11,0.47-0.24,0.72-0.35c0.1-0.05,0.21-0.09,0.31-0.14v-6c-0.08,0.04-0.15,0.08-0.21,0.13
					l-0.42,0.24c-0.41,0.25-0.8,0.5-1.2,0.7c-0.42,0.24-0.86,0.46-1.27,0.66c-0.75,0.35-1.48,0.65-2.14,0.89
					c-1.33,0.47-2.53,0.77-3.59,0.96c-0.13,0.03-0.25,0.05-0.38,0.06c-0.29,0.05-0.56,0.09-0.83,0.11
					c-0.43,0.04-0.81,0.07-1.16,0.08c-0.21,0-0.45,0.02-0.65,0.02c-0.43,0-0.86-0.02-1.3-0.05c-0.53-0.04-1.07-0.1-1.6-0.18
					c-0.86-0.15-1.74-0.37-2.59-0.68c-0.14-0.04-0.26-0.1-0.38-0.14c-0.08-0.03-0.18-0.07-0.25-0.1c-0.14-0.06-0.28-0.12-0.42-0.18
					c-0.28-0.14-0.59-0.29-0.87-0.45c-0.13-0.08-0.26-0.16-0.42-0.25c-0.15-0.09-0.29-0.18-0.43-0.28c-0.17-0.13-0.34-0.25-0.5-0.38
					c-0.18-0.13-0.34-0.27-0.48-0.4l-0.19-0.17l-0.11-0.1l-0.05-0.06l-0.07-0.07c-0.28-0.26-0.52-0.54-0.73-0.81
					c-0.14-0.15-0.25-0.3-0.37-0.46c-0.11-0.16-0.21-0.29-0.31-0.45c-0.09-0.13-0.18-0.29-0.26-0.42c-0.13-0.23-0.25-0.43-0.34-0.63
					c-0.09-0.18-0.18-0.36-0.26-0.55c-0.12-0.3-0.23-0.6-0.32-0.89c-0.07-0.23-0.13-0.45-0.18-0.67c-0.16-0.63-0.24-1.2-0.29-1.68
					c-0.03-0.2-0.03-0.37-0.04-0.53c0-0.24-0.01-0.45-0.01-0.61c0-0.11,0-0.24,0.01-0.38c0-0.34,0.03-0.78,0.11-1.27
					c0.04-0.3,0.1-0.63,0.18-0.96c0.05-0.23,0.11-0.45,0.19-0.68c0.05-0.22,0.13-0.44,0.24-0.65c0.05-0.15,0.11-0.3,0.16-0.45
					c0.11-0.21,0.2-0.41,0.3-0.62c0.09-0.16,0.18-0.3,0.27-0.47c0.19-0.33,0.42-0.68,0.68-1.01c0.09-0.12,0.17-0.24,0.28-0.36
					c0.12-0.16,0.25-0.31,0.4-0.47c0.07-0.08,0.14-0.15,0.23-0.22c1.09-1.11,2.32-1.92,3.61-2.51c0.2-0.08,0.4-0.17,0.61-0.25
					c0.2-0.08,0.4-0.15,0.61-0.22c0.22-0.08,0.44-0.15,0.66-0.2c0.21-0.06,0.43-0.12,0.62-0.17c0.23-0.05,0.45-0.09,0.64-0.13
					c0.23-0.04,0.47-0.07,0.7-0.11c0.23-0.03,0.45-0.05,0.69-0.08c0.43-0.03,0.86-0.05,1.27-0.05c0.16,0,0.29,0,0.42,0
					c0.32,0.01,0.61,0.03,0.9,0.03c0.21,0.02,0.41,0.03,0.61,0.05c0.39,0.04,0.74,0.09,1.1,0.13c0.3,0.05,0.59,0.1,0.87,0.16
					c0.43,0.09,0.83,0.19,1.18,0.28c0.22,0.05,0.44,0.12,0.63,0.18c0.3,0.09,0.55,0.16,0.73,0.23c0.34,0.11,0.53,0.19,0.53,0.19
					c0.31,0.1,0.58,0.21,0.86,0.33c0.39,0.15,0.75,0.32,1.11,0.48c0.29,0.13,0.55,0.26,0.82,0.39c0.23,0.1,0.43,0.21,0.61,0.3
					c0.32,0.17,0.6,0.33,0.82,0.45l0.62,0.34v-5.9c0,0-0.39-0.16-1-0.4c-0.29-0.11-0.62-0.22-1-0.36c-0.2-0.08-0.42-0.15-0.66-0.23
					c-0.18-0.06-0.38-0.14-0.58-0.2c-0.22-0.06-0.45-0.15-0.69-0.22c-0.19-0.05-0.36-0.11-0.55-0.15l-0.15-0.05
					c-0.19-0.05-0.35-0.09-0.54-0.15c-0.22-0.05-0.43-0.11-0.65-0.16c-0.14-0.03-0.28-0.07-0.42-0.1c-0.24-0.05-0.47-0.11-0.72-0.16
					C313.16,167.16,312.92,167.12,312.67,167.08L312.67,167.08z M283.19,160.95h46.79v44.03h-46.79V160.95L283.19,160.95z"/>
				<path d="M247.24,185.22v8.65h5.62c0,0,0.1,0,0.29-0.01c0.19-0.01,0.45-0.02,0.77-0.05c0.62-0.05,1.43-0.17,2.19-0.43
					c0.71-0.24,1.39-0.6,1.91-1.11c0.21-0.21,0.38-0.42,0.51-0.64c0.45-0.68,0.56-1.39,0.58-1.79c0.02-0.17,0.02-0.26,0.02-0.26
					s0-0.09,0-0.22c0-0.16-0.03-0.48-0.13-0.83c-0.1-0.41-0.29-0.88-0.67-1.32c-0.06-0.08-0.13-0.16-0.2-0.24
					c-0.16-0.15-0.33-0.31-0.51-0.44c-0.31-0.22-0.66-0.42-1.05-0.59c-0.5-0.21-1.05-0.38-1.68-0.5c-0.32-0.05-0.66-0.1-1-0.14
					c-0.21-0.03-0.42-0.05-0.64-0.05c-0.19-0.01-0.39-0.02-0.6-0.02C250.68,185.22,247.24,185.22,247.24,185.22L247.24,185.22z"/>
				<path d="M247.24,172.07v8.2h2.71c0,0,0.17,0,0.42,0c0.19,0,0.41-0.02,0.61-0.03c0.56-0.05,1.34-0.13,2.11-0.35
					c0.15-0.04,0.3-0.08,0.46-0.14c0.6-0.21,1.18-0.53,1.63-0.98c0.36-0.35,0.6-0.75,0.76-1.13c0.19-0.47,0.26-0.92,0.27-1.24
					c0.03-0.29,0.03-0.47,0.03-0.47s0-0.13-0.01-0.35c-0.03-0.36-0.08-0.93-0.37-1.49c-0.14-0.27-0.31-0.53-0.57-0.78
					c-0.3-0.3-0.68-0.54-1.08-0.71c-0.76-0.34-1.64-0.48-2.38-0.53c-0.33-0.02-0.61-0.02-0.87-0.02
					C250.43,172.07,247.24,172.07,247.24,172.07L247.24,172.07z"/>
				<path class="st4" d="M241.57,167.12v31.71h11.93c0,0,5.82,0.16,9.04-3.06c2.62-2.61,2.43-5.64,2.43-5.64s0.19-3.15-2.23-5.57
					c-2.06-2.07-4.71-2.62-4.71-2.62s1.2-0.55,2.11-1.47c0.44-0.43,1.95-1.8,1.95-5.15c0-3.36-2.24-5.3-2.24-5.3s-2.45-2.9-7.99-2.9
					H241.57L241.57,167.12z M229.29,160.95h46.78v44.03h-46.78V160.95L229.29,160.95z"/>
				<path d="M193.32,185.22v8.65h5.62c0,0,0.11,0,0.3-0.01c0.19-0.01,0.46-0.02,0.78-0.05c0.62-0.05,1.42-0.17,2.2-0.43
					c0.7-0.24,1.39-0.6,1.91-1.11c0.2-0.21,0.37-0.42,0.5-0.64c0.45-0.68,0.56-1.39,0.58-1.79c0.01-0.17,0.01-0.26,0.01-0.26
					s0-0.09,0-0.22c-0.01-0.16-0.03-0.48-0.13-0.83c-0.11-0.41-0.29-0.88-0.64-1.32c-0.07-0.08-0.13-0.16-0.22-0.24
					c-0.16-0.15-0.32-0.31-0.5-0.44c-0.3-0.22-0.66-0.42-1.03-0.59c-0.51-0.21-1.08-0.38-1.7-0.5c-0.32-0.05-0.65-0.1-0.99-0.14
					c-0.23-0.03-0.43-0.05-0.66-0.05c-0.19-0.01-0.4-0.02-0.6-0.02C196.77,185.22,193.32,185.22,193.32,185.22L193.32,185.22z"/>
				<path d="M193.32,172.07v8.2h2.72c0,0,0.18,0,0.43,0c0.19,0,0.42-0.02,0.61-0.03c0.55-0.05,1.33-0.13,2.1-0.35
					c0.16-0.04,0.3-0.08,0.45-0.14c0.61-0.21,1.2-0.53,1.64-0.98c0.37-0.35,0.61-0.75,0.76-1.13c0.2-0.47,0.26-0.92,0.29-1.24
					c0.01-0.29,0.01-0.47,0.01-0.47s0.01-0.13,0-0.35c-0.01-0.36-0.09-0.93-0.37-1.49c-0.14-0.27-0.32-0.53-0.58-0.78
					c-0.3-0.3-0.68-0.54-1.07-0.71c-0.77-0.34-1.65-0.48-2.38-0.53c-0.32-0.02-0.61-0.02-0.86-0.02
					C196.51,172.07,193.32,172.07,193.32,172.07L193.32,172.07z"/>
				<path class="st4" d="M187.65,167.12v31.71h11.94c0,0,5.82,0.16,9.04-3.06c2.61-2.61,2.42-5.64,2.42-5.64s0.19-3.15-2.24-5.57
					c-2.07-2.07-4.7-2.62-4.7-2.62s1.19-0.55,2.1-1.47c0.43-0.43,1.96-1.8,1.96-5.15c0-3.36-2.24-5.3-2.24-5.3s-2.45-2.9-8-2.9
					H187.65L187.65,167.12z M175.37,160.95h46.79v44.03h-46.79V160.95L175.37,160.95z"/>
			</g>
		</g>
	</g>
</g>
</svg>
