
<svg id="cr18-logo" data-name="cr18-logo" xmlns="http://www.w3.org/2000/svg" xmlns:xlink="http://www.w3.org/1999/xlink" viewBox="0 0 440 440">
  <defs>
    <style>.cr18-logo-cls-1{fill:none;}.cr18-logo-cls-2{clip-path:url(#clip-path);}.cr18-logo-cls-3{fill:#e53138;}.cr18-logo-cls-4{fill:#fff;}</style>
    <clipPath id="clip-path" transform="translate(-276.96 -276.95)">
      <rect class="cr18-logo-cls-1" width="1000" height="1000"/>
    </clipPath>
  </defs>
  <title>Comic Relief</title>
  <g class="cr18-logo-cls-2">
    <path class="cr18-logo-cls-3" d="M704.91,723H295.09A18.17,18.17,0,0,1,277,704.91V295.09A18.18,18.18,0,0,1,295.09,277H704.91a18.19,18.19,0,0,1,18.14,18.14V704.91A18.18,18.18,0,0,1,704.91,723" transform="translate(-276.96 -276.95)"/>
    <path class="cr18-logo-cls-4" d="M354.59,460.6c0,9.66,1.2,15.87,8.61,15.88s8.63-6.21,8.64-15.87V448.88h24.67v5c0,25.35-8.13,43.12-32.8,43.11-25.36,0-35.18-17.1-35.17-48.32V433.85c0-31.22,9.85-48.3,35.21-48.29,24.67,0,32.77,17.79,32.76,43.15v5H371.85V422c0-9.66-1.2-15.88-8.62-15.88s-8.62,6.21-8.63,15.87Z" transform="translate(-276.96 -276.95)"/>
    <path class="cr18-logo-cls-4" d="M426.87,460.29c0,9.66,1.54,16.22,9,16.22s9-6.55,9-16.21V422.35c0-9.66-1.54-16.22-9-16.23s-9,6.56-9,16.22ZM471,448.06c0,31.23-9.86,49-35.22,49s-35.19-17.78-35.17-49V434.58c0-31.23,9.85-49,35.21-49s35.19,17.79,35.17,49Z" transform="translate(-276.96 -276.95)"/>
  </g>
  <polygon class="cr18-logo-cls-4" points="243.27 165.26 243.96 165.26 254.33 110.06 286.25 110.08 286.2 218.76 262.74 218.75 262.76 156.82 262.07 156.82 250.14 218.75 234.27 218.74 222.05 156.8 221.36 156.8 221.33 218.73 199.08 218.72 199.13 110.04 231.73 110.05 243.27 165.26"/>
  <rect class="cr18-logo-cls-4" x="294.65" y="110.09" width="25.36" height="108.69"/>
  <g class="cr18-logo-cls-2">
    <path class="cr18-logo-cls-4" d="M628.87,460.73c0,9.66,1.2,15.87,8.62,15.87s8.63-6.2,8.63-15.87V449H670.8v5c0,25.36-8.12,43.12-32.79,43.11-25.36,0-35.19-17.09-35.17-48.32V434c0-31.22,9.86-48.3,35.22-48.28,24.67,0,32.77,17.78,32.76,43.14v5H646.13V422.09c0-9.66-1.2-15.87-8.62-15.87s-8.63,6.2-8.63,15.86Z" transform="translate(-276.96 -276.95)"/>
    <path class="cr18-logo-cls-4" d="M357,555c10.18,0,14.15-3.27,14.15-14.31,0-9.83-4-14.66-14.14-14.67h-2.41l0,29Zm14.29,59.36c-1.38-4.15-1.72-10.53-2.4-23.64-.52-10.35-3.1-15.7-11-15.7h-3.28v39.34h-25l.05-108.69h31.23c24.32,0,35.18,12.79,35.17,32.11,0,17.08-7.77,25.53-18.81,27.42,11.38,2.59,15.17,10.7,16,24.33.86,14.32.68,19.84,3.1,24.85Z" transform="translate(-276.96 -276.95)"/>
  </g>
  <polygon class="cr18-logo-cls-4" points="179.86 337.4 124.83 337.37 124.88 228.69 179.91 228.71 179.9 249.59 149.71 249.58 149.7 271.83 172.13 271.84 172.12 292.54 149.69 292.53 149.68 316.51 179.87 316.52 179.86 337.4"/>
  <polygon class="cr18-logo-cls-4" points="211.82 228.73 211.78 316.54 241.11 316.55 241.1 337.43 186.41 337.4 186.46 228.72 211.82 228.73"/>
  <rect class="cr18-logo-cls-4" x="246.02" y="228.75" width="25.36" height="108.69"/>
  <polygon class="cr18-logo-cls-4" points="334.94 337.47 279.91 337.44 279.96 228.76 334.99 228.78 334.98 249.66 304.79 249.65 304.78 271.9 327.21 271.91 327.2 292.61 304.77 292.6 304.76 316.58 334.95 316.6 334.94 337.47"/>
  <polygon class="cr18-logo-cls-4" points="341.49 337.47 341.54 228.79 394.5 228.81 394.5 249.69 366.89 249.68 366.88 274.86 387.07 274.87 387.06 295.4 366.87 295.39 366.85 337.48 341.49 337.47"/>
</svg>

